<svg width="10px" height="10px" id="logo" xmlns="http://www.w3.org/2000/svg" viewBox="0 0 991.92 933"><defs><style>.cls-1{fill:#fff;}</style></defs><title>A17</title><path class="cls-1" d="M1603.9,1212.57q-3.09-1.69-6.14-3.31-12.09-6.49-24.33-12.58a859.42,859.42,0,0,0-125.62-50.34c-1.3-.4-2.59-.81-3.87-1.19a854.83,854.83,0,0,0-119.64-27.5q-16.2-2.52-32.67-4.45a870.89,870.89,0,0,0-101.31-5.88q-13,0-25.94.39-25.58.74-50.74,3a858.45,858.45,0,0,0-154.68,28c-1.39.39-2.72.76-4.08,1.17a856.52,856.52,0,0,0-161.41,63.86l0,0q-16,8.28-31.68,17.24-26.89,15.4-52.59,32.66l-1.73,1.13c242.38-364.93,676.29-245.88,687.28-242.79l.21.06-25-63.47-69.66-176.88,20.15-49.83,50.12-123.9,6.74,18.16.19-.44,45,118.67,100.91,266,35.58,93.8Z" transform="translate(-707.44 -532.04)"/><path class="cls-1" d="M1015.1,947l27.67-65.18L1015.21,947Z" transform="translate(-707.44 -532.04)"/><path class="cls-1" d="M1169.53,930.1l0,.08,0,.06H1169q-13.93.3-27.64,1C1158.83,929.72,1167.83,930,1169.53,930.1Z" transform="translate(-707.44 -532.04)"/><path class="cls-1" d="M1699.36,1465H1538l-96.42-259.31q21.29,7.21,42,15.64A777.51,777.51,0,0,1,1605.36,1284q5.42,3.33,10.72,6.74,12.06,7.74,23.76,15.88l2.85,7.65,18.5,49.62.17.5Z" transform="translate(-707.44 -532.04)"/><path class="cls-1" d="M1063.6,1179.27,956.06,1434,943,1465H798.18l36.52-87.47,60.08-144A771.63,771.63,0,0,1,1063.6,1179.27Z" transform="translate(-707.44 -532.04)"/><path class="cls-1" d="M1011.47,955.11l.34-.08v0Z" transform="translate(-707.44 -532.04)"/><path class="cls-1" d="M1169.83,930.12l-.33.06-.49.07q-13.93.3-27.64,1c17.46-1.53,26.46-1.23,28.16-1.15Z" transform="translate(-707.44 -532.04)"/><path class="cls-1" d="M1337.33,532l-.29.68-23,54.47-44.7,105.9-8.8,20.82-.21.56-36.4,86.17-.29.69L1169.53,930.1c-1.7-.08-10.7-.38-28.16,1.15-24.88,2.19-66.94,8.12-129.56,23.78l3.4-8,27.56-65.16.44-1,42.46-100,18.66-44.19L1121,697.42l-1.92-.23.14-.3L974.4,679.48,1007.83,657l105.87-71L1172,546.89l13.57-9.11,2.05-1.35v0l1.64-1.11,1.14-.76,3.75-2.5Z" transform="translate(-707.44 -532.04)"/><line class="cls-1" x1="304.36" y1="422.99" x2="304.35" y2="423.02"/></svg>
